<mxfile host="65bd71144e" pages="2">
    <diagram name="Page-1" id="e91pzRcQPhSI3eJSJeZ0">
        <mxGraphModel dx="1248" dy="252" grid="1" gridSize="10" guides="1" tooltips="1" connect="1" arrows="1" fold="1" page="1" pageScale="1" pageWidth="827" pageHeight="1169" background="none" math="0" shadow="0">
            <root>
                <mxCell id="0"/>
                <mxCell id="1" parent="0"/>
                <mxCell id="jitWbyEfTe4oD04Pfy1s-3" style="edgeStyle=orthogonalEdgeStyle;rounded=0;orthogonalLoop=1;jettySize=auto;html=1;entryX=0.5;entryY=0;entryDx=0;entryDy=0;" parent="1" source="jitWbyEfTe4oD04Pfy1s-1" target="jitWbyEfTe4oD04Pfy1s-2" edge="1">
                    <mxGeometry relative="1" as="geometry"/>
                </mxCell>
                <mxCell id="jitWbyEfTe4oD04Pfy1s-1" value="/start" style="rhombus;whiteSpace=wrap;html=1;" parent="1" vertex="1">
                    <mxGeometry x="360" y="10" width="80" height="80" as="geometry"/>
                </mxCell>
                <mxCell id="jitWbyEfTe4oD04Pfy1s-7" style="edgeStyle=orthogonalEdgeStyle;rounded=0;orthogonalLoop=1;jettySize=auto;html=1;entryX=0.5;entryY=0;entryDx=0;entryDy=0;" parent="1" source="jitWbyEfTe4oD04Pfy1s-2" target="jitWbyEfTe4oD04Pfy1s-4" edge="1">
                    <mxGeometry relative="1" as="geometry"/>
                </mxCell>
                <mxCell id="jitWbyEfTe4oD04Pfy1s-8" style="edgeStyle=orthogonalEdgeStyle;rounded=0;orthogonalLoop=1;jettySize=auto;html=1;entryX=0.5;entryY=0;entryDx=0;entryDy=0;" parent="1" source="jitWbyEfTe4oD04Pfy1s-2" target="jitWbyEfTe4oD04Pfy1s-5" edge="1">
                    <mxGeometry relative="1" as="geometry"/>
                </mxCell>
                <mxCell id="jitWbyEfTe4oD04Pfy1s-2" value="Приветсвие" style="rounded=0;whiteSpace=wrap;html=1;" parent="1" vertex="1">
                    <mxGeometry x="345" y="120" width="110" height="60" as="geometry"/>
                </mxCell>
                <mxCell id="jitWbyEfTe4oD04Pfy1s-12" style="edgeStyle=orthogonalEdgeStyle;rounded=0;orthogonalLoop=1;jettySize=auto;html=1;entryX=0.5;entryY=0;entryDx=0;entryDy=0;" parent="1" source="jitWbyEfTe4oD04Pfy1s-4" target="jitWbyEfTe4oD04Pfy1s-9" edge="1">
                    <mxGeometry relative="1" as="geometry"/>
                </mxCell>
                <mxCell id="jitWbyEfTe4oD04Pfy1s-13" style="edgeStyle=orthogonalEdgeStyle;rounded=0;orthogonalLoop=1;jettySize=auto;html=1;entryX=0.5;entryY=0;entryDx=0;entryDy=0;" parent="1" source="jitWbyEfTe4oD04Pfy1s-4" target="jitWbyEfTe4oD04Pfy1s-11" edge="1">
                    <mxGeometry relative="1" as="geometry"/>
                </mxCell>
                <mxCell id="jitWbyEfTe4oD04Pfy1s-14" style="edgeStyle=orthogonalEdgeStyle;rounded=0;orthogonalLoop=1;jettySize=auto;html=1;entryX=0.5;entryY=0;entryDx=0;entryDy=0;" parent="1" source="jitWbyEfTe4oD04Pfy1s-4" target="jitWbyEfTe4oD04Pfy1s-10" edge="1">
                    <mxGeometry relative="1" as="geometry"/>
                </mxCell>
                <mxCell id="jitWbyEfTe4oD04Pfy1s-4" value="управление стикерпаками" style="ellipse;whiteSpace=wrap;html=1;" parent="1" vertex="1">
                    <mxGeometry x="40" y="200" width="120" height="80" as="geometry"/>
                </mxCell>
                <mxCell id="jitWbyEfTe4oD04Pfy1s-36" style="edgeStyle=orthogonalEdgeStyle;rounded=0;orthogonalLoop=1;jettySize=auto;html=1;entryX=0.5;entryY=0;entryDx=0;entryDy=0;" parent="1" source="jitWbyEfTe4oD04Pfy1s-5" target="jitWbyEfTe4oD04Pfy1s-34" edge="1">
                    <mxGeometry relative="1" as="geometry"/>
                </mxCell>
                <mxCell id="jitWbyEfTe4oD04Pfy1s-37" style="edgeStyle=orthogonalEdgeStyle;rounded=0;orthogonalLoop=1;jettySize=auto;html=1;entryX=0.5;entryY=0;entryDx=0;entryDy=0;" parent="1" source="jitWbyEfTe4oD04Pfy1s-5" target="jitWbyEfTe4oD04Pfy1s-35" edge="1">
                    <mxGeometry relative="1" as="geometry"/>
                </mxCell>
                <mxCell id="jitWbyEfTe4oD04Pfy1s-5" value="создание &lt;br&gt;стикерпака" style="ellipse;whiteSpace=wrap;html=1;" parent="1" vertex="1">
                    <mxGeometry x="1050" y="200" width="120" height="80" as="geometry"/>
                </mxCell>
                <mxCell id="jitWbyEfTe4oD04Pfy1s-20" style="edgeStyle=orthogonalEdgeStyle;rounded=0;orthogonalLoop=1;jettySize=auto;html=1;entryX=0.5;entryY=0;entryDx=0;entryDy=0;" parent="1" source="jitWbyEfTe4oD04Pfy1s-9" target="jitWbyEfTe4oD04Pfy1s-19" edge="1">
                    <mxGeometry relative="1" as="geometry"/>
                </mxCell>
                <mxCell id="jitWbyEfTe4oD04Pfy1s-22" style="edgeStyle=orthogonalEdgeStyle;rounded=0;orthogonalLoop=1;jettySize=auto;html=1;entryX=0.5;entryY=0;entryDx=0;entryDy=0;" parent="1" source="jitWbyEfTe4oD04Pfy1s-9" target="jitWbyEfTe4oD04Pfy1s-21" edge="1">
                    <mxGeometry relative="1" as="geometry"/>
                </mxCell>
                <mxCell id="jitWbyEfTe4oD04Pfy1s-9" value="Изменить" style="ellipse;whiteSpace=wrap;html=1;" parent="1" vertex="1">
                    <mxGeometry x="-340" y="300" width="120" height="80" as="geometry"/>
                </mxCell>
                <mxCell id="jitWbyEfTe4oD04Pfy1s-17" style="edgeStyle=orthogonalEdgeStyle;rounded=0;orthogonalLoop=1;jettySize=auto;html=1;" parent="1" source="jitWbyEfTe4oD04Pfy1s-10" target="jitWbyEfTe4oD04Pfy1s-16" edge="1">
                    <mxGeometry relative="1" as="geometry"/>
                </mxCell>
                <mxCell id="jitWbyEfTe4oD04Pfy1s-18" style="edgeStyle=orthogonalEdgeStyle;rounded=0;orthogonalLoop=1;jettySize=auto;html=1;" parent="1" source="jitWbyEfTe4oD04Pfy1s-10" target="jitWbyEfTe4oD04Pfy1s-15" edge="1">
                    <mxGeometry relative="1" as="geometry"/>
                </mxCell>
                <mxCell id="jitWbyEfTe4oD04Pfy1s-10" value="Удалить" style="ellipse;whiteSpace=wrap;html=1;" parent="1" vertex="1">
                    <mxGeometry x="40" y="310" width="120" height="80" as="geometry"/>
                </mxCell>
                <mxCell id="jitWbyEfTe4oD04Pfy1s-31" style="edgeStyle=orthogonalEdgeStyle;rounded=0;orthogonalLoop=1;jettySize=auto;html=1;entryX=0.5;entryY=0;entryDx=0;entryDy=0;" parent="1" source="jitWbyEfTe4oD04Pfy1s-11" target="jitWbyEfTe4oD04Pfy1s-29" edge="1">
                    <mxGeometry relative="1" as="geometry"/>
                </mxCell>
                <mxCell id="jitWbyEfTe4oD04Pfy1s-32" style="edgeStyle=orthogonalEdgeStyle;rounded=0;orthogonalLoop=1;jettySize=auto;html=1;entryX=0.5;entryY=0;entryDx=0;entryDy=0;" parent="1" source="jitWbyEfTe4oD04Pfy1s-11" target="jitWbyEfTe4oD04Pfy1s-28" edge="1">
                    <mxGeometry relative="1" as="geometry"/>
                </mxCell>
                <mxCell id="jitWbyEfTe4oD04Pfy1s-33" style="edgeStyle=orthogonalEdgeStyle;rounded=0;orthogonalLoop=1;jettySize=auto;html=1;entryX=0.5;entryY=0;entryDx=0;entryDy=0;" parent="1" source="jitWbyEfTe4oD04Pfy1s-11" target="jitWbyEfTe4oD04Pfy1s-30" edge="1">
                    <mxGeometry relative="1" as="geometry"/>
                </mxCell>
                <mxCell id="jitWbyEfTe4oD04Pfy1s-11" value="Добавить стикер" style="ellipse;whiteSpace=wrap;html=1;" parent="1" vertex="1">
                    <mxGeometry x="430" y="310" width="120" height="80" as="geometry"/>
                </mxCell>
                <mxCell id="jitWbyEfTe4oD04Pfy1s-15" value="Стикер из набора" style="ellipse;whiteSpace=wrap;html=1;" parent="1" vertex="1">
                    <mxGeometry x="-40" y="440" width="120" height="80" as="geometry"/>
                </mxCell>
                <mxCell id="jitWbyEfTe4oD04Pfy1s-16" value="Стикерпак" style="ellipse;whiteSpace=wrap;html=1;" parent="1" vertex="1">
                    <mxGeometry x="110" y="440" width="120" height="80" as="geometry"/>
                </mxCell>
                <mxCell id="jitWbyEfTe4oD04Pfy1s-19" value="Название" style="ellipse;whiteSpace=wrap;html=1;" parent="1" vertex="1">
                    <mxGeometry x="-560" y="410" width="120" height="80" as="geometry"/>
                </mxCell>
                <mxCell id="jitWbyEfTe4oD04Pfy1s-25" style="edgeStyle=orthogonalEdgeStyle;rounded=0;orthogonalLoop=1;jettySize=auto;html=1;entryX=0.5;entryY=0;entryDx=0;entryDy=0;" parent="1" source="jitWbyEfTe4oD04Pfy1s-21" target="jitWbyEfTe4oD04Pfy1s-24" edge="1">
                    <mxGeometry relative="1" as="geometry"/>
                </mxCell>
                <mxCell id="jitWbyEfTe4oD04Pfy1s-27" style="edgeStyle=orthogonalEdgeStyle;rounded=0;orthogonalLoop=1;jettySize=auto;html=1;" parent="1" source="jitWbyEfTe4oD04Pfy1s-21" target="jitWbyEfTe4oD04Pfy1s-23" edge="1">
                    <mxGeometry relative="1" as="geometry"/>
                </mxCell>
                <mxCell id="jitWbyEfTe4oD04Pfy1s-21" value="Стикер" style="ellipse;whiteSpace=wrap;html=1;" parent="1" vertex="1">
                    <mxGeometry x="-340" y="420" width="120" height="80" as="geometry"/>
                </mxCell>
                <mxCell id="jitWbyEfTe4oD04Pfy1s-23" value="Эмоджи" style="ellipse;whiteSpace=wrap;html=1;" parent="1" vertex="1">
                    <mxGeometry x="-420" y="550" width="120" height="80" as="geometry"/>
                </mxCell>
                <mxCell id="jitWbyEfTe4oD04Pfy1s-24" value="Картинку" style="ellipse;whiteSpace=wrap;html=1;" parent="1" vertex="1">
                    <mxGeometry x="-260" y="550" width="120" height="80" as="geometry"/>
                </mxCell>
                <mxCell id="jitWbyEfTe4oD04Pfy1s-28" value="Случайное эмоджи" style="ellipse;whiteSpace=wrap;html=1;" parent="1" vertex="1">
                    <mxGeometry x="280" y="510" width="120" height="80" as="geometry"/>
                </mxCell>
                <mxCell id="jitWbyEfTe4oD04Pfy1s-29" value="Пользовательское эмоджи" style="ellipse;whiteSpace=wrap;html=1;" parent="1" vertex="1">
                    <mxGeometry x="430" y="510" width="120" height="80" as="geometry"/>
                </mxCell>
                <mxCell id="jitWbyEfTe4oD04Pfy1s-30" value="Эмоджи от StickNet" style="ellipse;whiteSpace=wrap;html=1;" parent="1" vertex="1">
                    <mxGeometry x="580" y="510" width="120" height="80" as="geometry"/>
                </mxCell>
                <mxCell id="BHoxCgEBJNwNnFpgaZRz-5" style="edgeStyle=orthogonalEdgeStyle;rounded=0;orthogonalLoop=1;jettySize=auto;html=1;" parent="1" source="jitWbyEfTe4oD04Pfy1s-34" target="BHoxCgEBJNwNnFpgaZRz-1" edge="1">
                    <mxGeometry relative="1" as="geometry"/>
                </mxCell>
                <mxCell id="jitWbyEfTe4oD04Pfy1s-34" value="Классика" style="ellipse;whiteSpace=wrap;html=1;" parent="1" vertex="1">
                    <mxGeometry x="920" y="320" width="120" height="80" as="geometry"/>
                </mxCell>
                <mxCell id="jitWbyEfTe4oD04Pfy1s-41" style="edgeStyle=orthogonalEdgeStyle;rounded=0;orthogonalLoop=1;jettySize=auto;html=1;entryX=0.5;entryY=0;entryDx=0;entryDy=0;" parent="1" source="jitWbyEfTe4oD04Pfy1s-35" target="jitWbyEfTe4oD04Pfy1s-40" edge="1">
                    <mxGeometry relative="1" as="geometry"/>
                </mxCell>
                <mxCell id="jitWbyEfTe4oD04Pfy1s-42" style="edgeStyle=orthogonalEdgeStyle;rounded=0;orthogonalLoop=1;jettySize=auto;html=1;" parent="1" source="jitWbyEfTe4oD04Pfy1s-35" target="jitWbyEfTe4oD04Pfy1s-39" edge="1">
                    <mxGeometry relative="1" as="geometry"/>
                </mxCell>
                <mxCell id="jitWbyEfTe4oD04Pfy1s-43" style="edgeStyle=orthogonalEdgeStyle;rounded=0;orthogonalLoop=1;jettySize=auto;html=1;entryX=0.5;entryY=0;entryDx=0;entryDy=0;" parent="1" source="jitWbyEfTe4oD04Pfy1s-35" target="jitWbyEfTe4oD04Pfy1s-38" edge="1">
                    <mxGeometry relative="1" as="geometry"/>
                </mxCell>
                <mxCell id="jitWbyEfTe4oD04Pfy1s-35" value="Конвейр" style="ellipse;whiteSpace=wrap;html=1;" parent="1" vertex="1">
                    <mxGeometry x="1590" y="310" width="120" height="80" as="geometry"/>
                </mxCell>
                <mxCell id="jitWbyEfTe4oD04Pfy1s-38" value="Случайные эмоджи" style="ellipse;whiteSpace=wrap;html=1;" parent="1" vertex="1">
                    <mxGeometry x="1440" y="510" width="120" height="80" as="geometry"/>
                </mxCell>
                <mxCell id="jitWbyEfTe4oD04Pfy1s-39" value="Пользовательские эмоджи" style="ellipse;whiteSpace=wrap;html=1;" parent="1" vertex="1">
                    <mxGeometry x="1590" y="510" width="120" height="80" as="geometry"/>
                </mxCell>
                <mxCell id="jitWbyEfTe4oD04Pfy1s-40" value="Эмоджи от StickNet" style="ellipse;whiteSpace=wrap;html=1;" parent="1" vertex="1">
                    <mxGeometry x="1740" y="510" width="120" height="80" as="geometry"/>
                </mxCell>
                <mxCell id="BHoxCgEBJNwNnFpgaZRz-6" style="edgeStyle=orthogonalEdgeStyle;rounded=0;orthogonalLoop=1;jettySize=auto;html=1;entryX=0.579;entryY=0.042;entryDx=0;entryDy=0;entryPerimeter=0;" parent="1" source="BHoxCgEBJNwNnFpgaZRz-1" target="BHoxCgEBJNwNnFpgaZRz-2" edge="1">
                    <mxGeometry relative="1" as="geometry"/>
                </mxCell>
                <mxCell id="BHoxCgEBJNwNnFpgaZRz-1" value="Название" style="shape=parallelogram;perimeter=parallelogramPerimeter;whiteSpace=wrap;html=1;fixedSize=1;" parent="1" vertex="1">
                    <mxGeometry x="920" y="440" width="120" height="60" as="geometry"/>
                </mxCell>
                <mxCell id="BHoxCgEBJNwNnFpgaZRz-7" style="edgeStyle=orthogonalEdgeStyle;rounded=0;orthogonalLoop=1;jettySize=auto;html=1;" parent="1" source="BHoxCgEBJNwNnFpgaZRz-2" target="BHoxCgEBJNwNnFpgaZRz-3" edge="1">
                    <mxGeometry relative="1" as="geometry"/>
                </mxCell>
                <mxCell id="2" style="edgeStyle=none;html=1;entryX=0.5;entryY=0;entryDx=0;entryDy=0;" edge="1" parent="1" source="BHoxCgEBJNwNnFpgaZRz-2" target="BHoxCgEBJNwNnFpgaZRz-4">
                    <mxGeometry relative="1" as="geometry"/>
                </mxCell>
                <mxCell id="BHoxCgEBJNwNnFpgaZRz-2" value="Фото" style="shape=parallelogram;perimeter=parallelogramPerimeter;whiteSpace=wrap;html=1;fixedSize=1;" parent="1" vertex="1">
                    <mxGeometry x="910" y="540" width="120" height="60" as="geometry"/>
                </mxCell>
                <mxCell id="BHoxCgEBJNwNnFpgaZRz-3" value="Ресайз" style="shape=step;perimeter=stepPerimeter;whiteSpace=wrap;html=1;fixedSize=1;" parent="1" vertex="1">
                    <mxGeometry x="1090" y="530" width="120" height="80" as="geometry"/>
                </mxCell>
                <mxCell id="BHoxCgEBJNwNnFpgaZRz-13" style="edgeStyle=orthogonalEdgeStyle;rounded=0;orthogonalLoop=1;jettySize=auto;html=1;entryX=1;entryY=0.5;entryDx=0;entryDy=0;" parent="1" source="BHoxCgEBJNwNnFpgaZRz-4" target="BHoxCgEBJNwNnFpgaZRz-10" edge="1">
                    <mxGeometry relative="1" as="geometry"/>
                </mxCell>
                <mxCell id="BHoxCgEBJNwNnFpgaZRz-14" style="edgeStyle=orthogonalEdgeStyle;rounded=0;orthogonalLoop=1;jettySize=auto;html=1;entryX=0;entryY=0.5;entryDx=0;entryDy=0;" parent="1" source="BHoxCgEBJNwNnFpgaZRz-4" target="BHoxCgEBJNwNnFpgaZRz-11" edge="1">
                    <mxGeometry relative="1" as="geometry"/>
                </mxCell>
                <mxCell id="BHoxCgEBJNwNnFpgaZRz-4" value="emoji&lt;br&gt;" style="shape=parallelogram;perimeter=parallelogramPerimeter;whiteSpace=wrap;html=1;fixedSize=1;" parent="1" vertex="1">
                    <mxGeometry x="910" y="670" width="120" height="60" as="geometry"/>
                </mxCell>
                <mxCell id="BHoxCgEBJNwNnFpgaZRz-12" style="edgeStyle=orthogonalEdgeStyle;rounded=0;orthogonalLoop=1;jettySize=auto;html=1;entryX=0.25;entryY=0;entryDx=0;entryDy=0;" parent="1" source="BHoxCgEBJNwNnFpgaZRz-10" target="BHoxCgEBJNwNnFpgaZRz-2" edge="1">
                    <mxGeometry relative="1" as="geometry">
                        <mxPoint x="860" y="550" as="targetPoint"/>
                        <Array as="points">
                            <mxPoint x="860" y="520"/>
                            <mxPoint x="940" y="520"/>
                        </Array>
                    </mxGeometry>
                </mxCell>
                <mxCell id="BHoxCgEBJNwNnFpgaZRz-22" style="edgeStyle=orthogonalEdgeStyle;rounded=0;orthogonalLoop=1;jettySize=auto;html=1;" parent="1" source="BHoxCgEBJNwNnFpgaZRz-10" edge="1">
                    <mxGeometry relative="1" as="geometry">
                        <mxPoint x="860" y="960" as="targetPoint"/>
                        <Array as="points">
                            <mxPoint x="860" y="952"/>
                        </Array>
                    </mxGeometry>
                </mxCell>
                <mxCell id="BHoxCgEBJNwNnFpgaZRz-10" value="Еще" style="rhombus;whiteSpace=wrap;html=1;" parent="1" vertex="1">
                    <mxGeometry x="820" y="760" width="80" height="80" as="geometry"/>
                </mxCell>
                <mxCell id="BHoxCgEBJNwNnFpgaZRz-16" style="edgeStyle=orthogonalEdgeStyle;rounded=0;orthogonalLoop=1;jettySize=auto;html=1;entryX=0.5;entryY=0;entryDx=0;entryDy=0;" parent="1" source="BHoxCgEBJNwNnFpgaZRz-11" target="BHoxCgEBJNwNnFpgaZRz-15" edge="1">
                    <mxGeometry relative="1" as="geometry"/>
                </mxCell>
                <mxCell id="BHoxCgEBJNwNnFpgaZRz-11" value="Создать" style="rhombus;whiteSpace=wrap;html=1;" parent="1" vertex="1">
                    <mxGeometry x="1030" y="750" width="80" height="80" as="geometry"/>
                </mxCell>
                <mxCell id="BHoxCgEBJNwNnFpgaZRz-15" value="Создать стикерпак" style="shape=trapezoid;perimeter=trapezoidPerimeter;whiteSpace=wrap;html=1;fixedSize=1;" parent="1" vertex="1">
                    <mxGeometry x="1010" y="880" width="140" height="60" as="geometry"/>
                </mxCell>
                <mxCell id="BHoxCgEBJNwNnFpgaZRz-18" style="edgeStyle=orthogonalEdgeStyle;rounded=0;orthogonalLoop=1;jettySize=auto;html=1;entryX=0.5;entryY=1;entryDx=0;entryDy=0;" parent="1" source="BHoxCgEBJNwNnFpgaZRz-17" target="jitWbyEfTe4oD04Pfy1s-5" edge="1">
                    <mxGeometry relative="1" as="geometry"/>
                </mxCell>
                <mxCell id="BHoxCgEBJNwNnFpgaZRz-17" value="Выйти" style="ellipse;shape=cloud;whiteSpace=wrap;html=1;" parent="1" vertex="1">
                    <mxGeometry x="1090" y="370" width="120" height="80" as="geometry"/>
                </mxCell>
                <mxCell id="BHoxCgEBJNwNnFpgaZRz-23" style="edgeStyle=orthogonalEdgeStyle;rounded=0;orthogonalLoop=1;jettySize=auto;html=1;entryX=0.25;entryY=1;entryDx=0;entryDy=0;" parent="1" source="BHoxCgEBJNwNnFpgaZRz-21" edge="1" target="BHoxCgEBJNwNnFpgaZRz-4">
                    <mxGeometry relative="1" as="geometry">
                        <mxPoint x="950" y="740" as="targetPoint"/>
                        <Array as="points">
                            <mxPoint x="940" y="830"/>
                            <mxPoint x="940" y="830"/>
                        </Array>
                    </mxGeometry>
                </mxCell>
                <mxCell id="BHoxCgEBJNwNnFpgaZRz-21" value="Отмена" style="ellipse;shape=cloud;whiteSpace=wrap;html=1;" parent="1" vertex="1">
                    <mxGeometry x="860" y="930" width="120" height="80" as="geometry"/>
                </mxCell>
            </root>
        </mxGraphModel>
    </diagram>
    <diagram id="zRSCUQigW_uWpEA1Yu5S" name="Page-3">
        <mxGraphModel grid="1" page="1" gridSize="10" guides="1" tooltips="1" connect="1" arrows="1" fold="1" pageScale="1" pageWidth="827" pageHeight="1169" math="0" shadow="0">
            <root>
                <mxCell id="0"/>
                <mxCell id="1" parent="0"/>
                <mxCell id="CbJgcJDVt5i5rhKkeBf9-2" style="edgeStyle=orthogonalEdgeStyle;rounded=0;orthogonalLoop=1;jettySize=auto;html=1;exitX=0.75;exitY=0;exitDx=0;exitDy=0;" edge="1" parent="1" source="CbJgcJDVt5i5rhKkeBf9-1">
                    <mxGeometry relative="1" as="geometry">
                        <mxPoint x="590" y="220" as="targetPoint"/>
                    </mxGeometry>
                </mxCell>
                <mxCell id="CbJgcJDVt5i5rhKkeBf9-9" value="emojies&lt;br&gt;" style="edgeLabel;html=1;align=center;verticalAlign=middle;resizable=0;points=[];" connectable="0" vertex="1" parent="CbJgcJDVt5i5rhKkeBf9-2">
                    <mxGeometry x="0.0073" y="-4" relative="1" as="geometry">
                        <mxPoint x="-4" y="1" as="offset"/>
                    </mxGeometry>
                </mxCell>
                <mxCell id="CbJgcJDVt5i5rhKkeBf9-1" value="StickNet" style="rounded=0;whiteSpace=wrap;html=1;" vertex="1" parent="1">
                    <mxGeometry x="500" y="340" width="120" height="60" as="geometry"/>
                </mxCell>
                <mxCell id="CbJgcJDVt5i5rhKkeBf9-3" value="" style="endArrow=classic;html=1;rounded=0;entryX=0.25;entryY=0;entryDx=0;entryDy=0;" edge="1" parent="1" target="CbJgcJDVt5i5rhKkeBf9-1">
                    <mxGeometry width="50" height="50" relative="1" as="geometry">
                        <mxPoint x="530" y="220" as="sourcePoint"/>
                        <mxPoint x="470" y="310" as="targetPoint"/>
                    </mxGeometry>
                </mxCell>
                <mxCell id="CbJgcJDVt5i5rhKkeBf9-8" value="images" style="edgeLabel;html=1;align=center;verticalAlign=middle;resizable=0;points=[];" connectable="0" vertex="1" parent="CbJgcJDVt5i5rhKkeBf9-3">
                    <mxGeometry x="0.0879" y="-2" relative="1" as="geometry">
                        <mxPoint y="-5" as="offset"/>
                    </mxGeometry>
                </mxCell>
                <mxCell id="CbJgcJDVt5i5rhKkeBf9-4" value="ResizeImage" style="rounded=0;whiteSpace=wrap;html=1;" vertex="1" parent="1">
                    <mxGeometry x="140" y="340" width="120" height="60" as="geometry"/>
                </mxCell>
                <mxCell id="CbJgcJDVt5i5rhKkeBf9-5" value="image" style="edgeStyle=orthogonalEdgeStyle;rounded=0;orthogonalLoop=1;jettySize=auto;html=1;exitX=0.75;exitY=0;exitDx=0;exitDy=0;" edge="1" parent="1">
                    <mxGeometry relative="1" as="geometry">
                        <mxPoint x="229.5" y="220" as="targetPoint"/>
                        <mxPoint x="229.5" y="340" as="sourcePoint"/>
                    </mxGeometry>
                </mxCell>
                <mxCell id="CbJgcJDVt5i5rhKkeBf9-6" value="" style="endArrow=classic;html=1;rounded=0;entryX=0.25;entryY=0;entryDx=0;entryDy=0;" edge="1" parent="1">
                    <mxGeometry width="50" height="50" relative="1" as="geometry">
                        <mxPoint x="169.5" y="220" as="sourcePoint"/>
                        <mxPoint x="169.5" y="340" as="targetPoint"/>
                    </mxGeometry>
                </mxCell>
                <mxCell id="CbJgcJDVt5i5rhKkeBf9-7" value="image" style="edgeLabel;html=1;align=center;verticalAlign=middle;resizable=0;points=[];" connectable="0" vertex="1" parent="CbJgcJDVt5i5rhKkeBf9-6">
                    <mxGeometry x="-0.0955" relative="1" as="geometry">
                        <mxPoint y="6" as="offset"/>
                    </mxGeometry>
                </mxCell>
                <mxCell id="CbJgcJDVt5i5rhKkeBf9-14" style="edgeStyle=orthogonalEdgeStyle;rounded=0;orthogonalLoop=1;jettySize=auto;html=1;entryX=0.107;entryY=0.992;entryDx=0;entryDy=0;entryPerimeter=0;exitX=0.414;exitY=-0.037;exitDx=0;exitDy=0;exitPerimeter=0;" edge="1" parent="1" source="CbJgcJDVt5i5rhKkeBf9-10" target="CbJgcJDVt5i5rhKkeBf9-11">
                    <mxGeometry relative="1" as="geometry"/>
                </mxCell>
                <mxCell id="CbJgcJDVt5i5rhKkeBf9-10" value="TelegramBotService" style="rounded=0;whiteSpace=wrap;html=1;" vertex="1" parent="1">
                    <mxGeometry x="140" y="160" width="490" height="60" as="geometry"/>
                </mxCell>
                <mxCell id="CbJgcJDVt5i5rhKkeBf9-13" style="edgeStyle=orthogonalEdgeStyle;rounded=0;orthogonalLoop=1;jettySize=auto;html=1;entryX=0.612;entryY=0.023;entryDx=0;entryDy=0;entryPerimeter=0;exitX=0.92;exitY=0.986;exitDx=0;exitDy=0;exitPerimeter=0;" edge="1" parent="1" source="CbJgcJDVt5i5rhKkeBf9-11" target="CbJgcJDVt5i5rhKkeBf9-10">
                    <mxGeometry relative="1" as="geometry"/>
                </mxCell>
                <mxCell id="CbJgcJDVt5i5rhKkeBf9-21" style="edgeStyle=orthogonalEdgeStyle;rounded=0;orthogonalLoop=1;jettySize=auto;html=1;" edge="1" parent="1" source="CbJgcJDVt5i5rhKkeBf9-11">
                    <mxGeometry relative="1" as="geometry">
                        <mxPoint x="390" y="-80" as="targetPoint"/>
                    </mxGeometry>
                </mxCell>
                <mxCell id="CbJgcJDVt5i5rhKkeBf9-11" value="TelegramHandlers" style="rounded=0;whiteSpace=wrap;html=1;" vertex="1" parent="1">
                    <mxGeometry x="330" y="30" width="120" height="60" as="geometry"/>
                </mxCell>
                <mxCell id="CbJgcJDVt5i5rhKkeBf9-19" style="edgeStyle=orthogonalEdgeStyle;rounded=0;orthogonalLoop=1;jettySize=auto;html=1;entryX=0.5;entryY=0;entryDx=0;entryDy=0;" edge="1" parent="1" source="CbJgcJDVt5i5rhKkeBf9-15" target="CbJgcJDVt5i5rhKkeBf9-11">
                    <mxGeometry relative="1" as="geometry">
                        <mxPoint x="350" y="20" as="targetPoint"/>
                    </mxGeometry>
                </mxCell>
                <mxCell id="CbJgcJDVt5i5rhKkeBf9-15" value="User" style="shape=umlActor;verticalLabelPosition=bottom;verticalAlign=top;html=1;outlineConnect=0;" vertex="1" parent="1">
                    <mxGeometry x="375" y="-140" width="30" height="60" as="geometry"/>
                </mxCell>
            </root>
        </mxGraphModel>
    </diagram>
</mxfile>